<mxfile host="app.diagrams.net" agent="Mozilla/5.0 (Windows NT 10.0; Win64; x64) AppleWebKit/537.36 (KHTML, like Gecko) Chrome/130.0.0.0 Safari/537.36" version="24.8.4">
  <diagram name="Seite-1" id="JZE-j0ySYSTVYVJQUtbw">
    <mxGraphModel dx="1688" dy="647" grid="1" gridSize="10" guides="1" tooltips="1" connect="1" arrows="1" fold="1" page="1" pageScale="1" pageWidth="827" pageHeight="1169" math="0" shadow="0">
      <root>
        <mxCell id="0" />
        <mxCell id="1" parent="0" />
        <mxCell id="J6w4nhRHNY1ot2__X1QR-3" value="" style="rounded=0;whiteSpace=wrap;html=1;fillColor=#fff2cc;strokeColor=#d6b656;" vertex="1" parent="1">
          <mxGeometry x="40" y="480" width="200" height="220" as="geometry" />
        </mxCell>
        <mxCell id="J6w4nhRHNY1ot2__X1QR-4" value="Prozessmodell" style="rounded=0;whiteSpace=wrap;html=1;fillColor=#fff2cc;strokeColor=#d6b656;fontStyle=1" vertex="1" parent="1">
          <mxGeometry x="40" y="440" width="200" height="40" as="geometry" />
        </mxCell>
        <mxCell id="J6w4nhRHNY1ot2__X1QR-5" value="" style="rounded=0;whiteSpace=wrap;html=1;fillColor=#f8cecc;strokeColor=#b85450;" vertex="1" parent="1">
          <mxGeometry x="560" y="480" width="200" height="220" as="geometry" />
        </mxCell>
        <mxCell id="J6w4nhRHNY1ot2__X1QR-6" value="Anlagenmodell" style="rounded=0;whiteSpace=wrap;html=1;fillColor=#f8cecc;strokeColor=#b85450;fontStyle=1" vertex="1" parent="1">
          <mxGeometry x="560" y="440" width="200" height="40" as="geometry" />
        </mxCell>
        <mxCell id="J6w4nhRHNY1ot2__X1QR-7" value="" style="rounded=0;whiteSpace=wrap;html=1;fillColor=#f5f5f5;strokeColor=#666666;fontColor=#333333;" vertex="1" parent="1">
          <mxGeometry x="314" y="80" width="200" height="160" as="geometry" />
        </mxCell>
        <mxCell id="J6w4nhRHNY1ot2__X1QR-8" value="Systemodell" style="rounded=0;whiteSpace=wrap;html=1;fillColor=#f5f5f5;strokeColor=#666666;fontStyle=1;fontColor=#333333;" vertex="1" parent="1">
          <mxGeometry x="314" y="40" width="200" height="40" as="geometry" />
        </mxCell>
        <mxCell id="J6w4nhRHNY1ot2__X1QR-11" style="edgeStyle=orthogonalEdgeStyle;rounded=0;orthogonalLoop=1;jettySize=auto;html=1;entryX=0.5;entryY=0;entryDx=0;entryDy=0;strokeWidth=2;" edge="1" parent="1" source="J6w4nhRHNY1ot2__X1QR-9" target="J6w4nhRHNY1ot2__X1QR-10">
          <mxGeometry relative="1" as="geometry" />
        </mxCell>
        <mxCell id="J6w4nhRHNY1ot2__X1QR-9" value="Zustandshandling" style="rounded=0;whiteSpace=wrap;html=1;fillColor=#eeeeee;strokeColor=#36393d;" vertex="1" parent="1">
          <mxGeometry x="324" y="90" width="180" height="40" as="geometry" />
        </mxCell>
        <mxCell id="J6w4nhRHNY1ot2__X1QR-10" value="Systemparameter" style="rounded=0;whiteSpace=wrap;html=1;fillColor=#eeeeee;strokeColor=#36393d;" vertex="1" parent="1">
          <mxGeometry x="324" y="190" width="180" height="40" as="geometry" />
        </mxCell>
      </root>
    </mxGraphModel>
  </diagram>
</mxfile>
